<svg width="58" height="58" viewBox="0 0 58 58" fill="none" xmlns="http://www.w3.org/2000/svg">
<path d="M24.8674 9.32834L4.3982 43.5C3.97617 44.2309 3.75287 45.0595 3.75051 45.9034C3.74814 46.7474 3.9668 47.5772 4.38473 48.3104C4.80266 49.0436 5.40529 49.6546 6.13266 50.0826C6.86003 50.5106 7.6868 50.7407 8.5307 50.75H49.469C50.3129 50.7407 51.1397 50.5106 51.8671 50.0826C52.5944 49.6546 53.1971 49.0436 53.615 48.3104C54.0329 47.5772 54.2516 46.7474 54.2492 45.9034C54.2469 45.0595 54.0236 44.2309 53.6015 43.5L33.1324 9.32834C32.7015 8.6181 32.0949 8.03088 31.3711 7.62334C30.6472 7.21581 29.8306 7.00171 28.9999 7.00171C28.1692 7.00171 27.3525 7.21581 26.6286 7.62334C25.9048 8.03088 25.2982 8.6181 24.8674 9.32834V9.32834Z" stroke="#E8793B" stroke-width="3" stroke-linecap="round" stroke-linejoin="round"/>
<path d="M29 21.75V31.4167" stroke="#E8793B" stroke-width="3" stroke-linecap="round" stroke-linejoin="round"/>
<path d="M29 41.0833H29.0242" stroke="#E8793B" stroke-width="3" stroke-linecap="round" stroke-linejoin="round"/>
</svg>
