<svg width="24" height="24" viewBox="0 0 24 24" fill="none" xmlns="http://www.w3.org/2000/svg">
<path fill-rule="evenodd" clip-rule="evenodd" d="M12.043 2.50904C12.2365 2.85242 12.2103 3.27745 11.976 3.59442C11.1218 4.75008 10.7107 6.17395 10.8176 7.60706C10.9244 9.04018 11.5421 10.3873 12.5583 11.4035C13.5745 12.4197 14.9217 13.0374 16.3548 13.1443C17.6887 13.2437 19.1511 12.6231 20.4056 11.6959C20.7282 11.4574 21.1621 11.4348 21.5078 11.6385C21.8534 11.8422 22.0438 12.2328 21.9914 12.6306L21.9557 12.9019C21.7778 14.786 21.0689 16.5811 19.9112 18.0785C18.7494 19.5811 17.1837 20.7218 15.3972 21.3671C13.6108 22.0124 11.6776 22.1355 9.82368 21.7221C7.96981 21.3088 6.27201 20.376 4.92893 19.0329C3.58586 17.6898 2.65306 15.992 2.23969 14.1381C1.82632 12.2843 1.94948 10.351 2.59475 8.56459C3.24002 6.77816 4.38072 5.21244 5.88336 4.05065C7.38601 2.88886 9.18846 2.17904 11.0798 2.00426C11.4723 1.96799 11.8495 2.16566 12.043 2.50904ZM19.5931 14.4807C18.5468 14.945 17.3892 15.2269 16.206 15.1387C14.2952 14.9962 12.499 14.1726 11.1441 12.8177C9.78921 11.4628 8.96561 9.66661 8.82312 7.7558C8.73855 6.62183 8.89719 5.4922 9.2782 4.43908C8.50059 4.72043 7.76741 5.12204 7.10669 5.63289C5.90457 6.56232 4.99202 7.81489 4.4758 9.24404C3.95958 10.6732 3.86106 12.2198 4.19175 13.7029C4.52245 15.186 5.26869 16.5442 6.34315 17.6187C7.41761 18.6931 8.77585 19.4394 10.2589 19.7701C11.742 20.1008 13.2887 20.0022 14.7178 19.486C16.1469 18.9698 17.3995 18.0573 18.3289 16.8551C18.884 16.1372 19.3101 15.3338 19.5931 14.4807Z" fill="white"/>
</svg>
