<svg width="254" height="32" viewBox="0 0 254 32" fill="none" xmlns="http://www.w3.org/2000/svg">
<g clip-path="url(#clip0_139_14129)">
<path d="M3.44531 9.17578L6.73242 18.457L10.002 9.17578H13.4648V21.9727H10.8193V18.4746L11.083 12.4365L7.62891 21.9727H5.81836L2.37305 12.4453L2.63672 18.4746V21.9727H0V9.17578H3.44531Z" fill="white"/>
<path d="M28.7536 14.9414L31.4167 9.17578H34.2995L30.0983 17.332V21.9727H27.4177V17.332L23.2165 9.17578H26.1081L28.7536 14.9414Z" fill="white"/>
<path d="M57.5909 21.9727V9.17578H62.0733C63.626 9.17578 64.8037 9.47461 65.6065 10.0723C66.4092 10.6641 66.8106 11.5342 66.8106 12.6826C66.8106 13.3096 66.6495 13.8633 66.3272 14.3438C66.0049 14.8184 65.5567 15.167 64.9825 15.3896C65.6387 15.5537 66.1543 15.8848 66.5293 16.3828C66.9102 16.8809 67.1006 17.4902 67.1006 18.2109C67.1006 19.4414 66.708 20.373 65.9229 21.0059C65.1377 21.6387 64.0186 21.9609 62.5655 21.9727H57.5909ZM60.2276 16.4004V19.8545H62.4864C63.1075 19.8545 63.5909 19.708 63.9366 19.415C64.2881 19.1162 64.4639 18.7061 64.4639 18.1846C64.4639 17.0127 63.8575 16.418 62.6446 16.4004H60.2276ZM60.2276 14.5371H62.1787C63.5088 14.5137 64.1739 13.9834 64.1739 12.9463C64.1739 12.3662 64.0039 11.9502 63.6641 11.6982C63.3301 11.4404 62.7998 11.3115 62.0733 11.3115H60.2276V14.5371Z" fill="white"/>
<path d="M87.5925 9.17578V17.6045C87.5925 19.0049 87.153 20.1123 86.2741 20.9268C85.4011 21.7412 84.2058 22.1484 82.6882 22.1484C81.1941 22.1484 80.0075 21.7529 79.1286 20.9619C78.2497 20.1709 77.8015 19.084 77.7839 17.7012V9.17578H80.4206V17.6221C80.4206 18.46 80.6198 19.0723 81.0183 19.459C81.4226 19.8398 81.9792 20.0303 82.6882 20.0303C84.1706 20.0303 84.9236 19.251 84.947 17.6924V9.17578H87.5925Z" fill="white"/>
<path d="M108.621 17.71C108.521 19.0869 108.011 20.1709 107.091 20.9619C106.177 21.7529 104.97 22.1484 103.47 22.1484C101.829 22.1484 100.537 21.5977 99.5941 20.4961C98.6566 19.3887 98.1879 17.8711 98.1879 15.9434V15.1611C98.1879 13.9307 98.4047 12.8467 98.8383 11.9092C99.2719 10.9717 99.89 10.2539 100.693 9.75586C101.501 9.25195 102.439 9 103.505 9C104.982 9 106.171 9.39551 107.074 10.1865C107.976 10.9775 108.497 12.0879 108.638 13.5176H106.001C105.937 12.6914 105.705 12.0938 105.307 11.7246C104.914 11.3496 104.314 11.1621 103.505 11.1621C102.626 11.1621 101.967 11.4785 101.528 12.1113C101.094 12.7383 100.871 13.7139 100.86 15.0381V16.0049C100.86 17.3877 101.068 18.3984 101.484 19.0371C101.906 19.6758 102.568 19.9951 103.47 19.9951C104.285 19.9951 104.891 19.8105 105.289 19.4414C105.694 19.0664 105.925 18.4893 105.984 17.71H108.621Z" fill="white"/>
<path d="M123.18 16.8398L121.809 18.3164V21.9727H119.172V9.17578H121.809V14.9766L122.969 13.3857L126.23 9.17578H129.473L124.929 14.8623L129.605 21.9727H126.467L123.18 16.8398Z" fill="white"/>
<path d="M147.117 16.4268H142.054V19.8545H147.996V21.9727H139.418V9.17578H147.978V11.3115H142.054V14.3613H147.117V16.4268Z" fill="white"/>
<path d="M168.171 11.3115H164.251V21.9727H161.615V11.3115H157.747V9.17578H168.171V11.3115Z" fill="white"/>
<path d="M193.915 19.8545H199.513V21.9727H191.278V9.17578H193.915V19.8545Z" fill="white"/>
<path d="M212.658 21.9727H210.021V9.17578H212.658V21.9727Z" fill="white"/>
<path d="M230.566 18.6152C230.566 18.1172 230.39 17.7363 230.038 17.4727C229.687 17.2031 229.054 16.9219 228.14 16.6289C227.226 16.3301 226.502 16.0371 225.969 15.75C224.516 14.9648 223.789 13.9072 223.789 12.5771C223.789 11.8857 223.983 11.2705 224.369 10.7314C224.762 10.1865 225.321 9.76172 226.048 9.45703C226.78 9.15234 227.601 9 228.509 9C229.423 9 230.237 9.16699 230.952 9.50098C231.667 9.8291 232.221 10.2949 232.613 10.8984C233.012 11.502 233.211 12.1875 233.211 12.9551H230.574C230.574 12.3691 230.39 11.915 230.021 11.5928C229.652 11.2646 229.133 11.1006 228.465 11.1006C227.82 11.1006 227.319 11.2383 226.962 11.5137C226.605 11.7832 226.426 12.1406 226.426 12.5859C226.426 13.002 226.634 13.3506 227.05 13.6318C227.472 13.9131 228.09 14.1768 228.904 14.4229C230.404 14.874 231.497 15.4336 232.183 16.1016C232.868 16.7695 233.211 17.6016 233.211 18.5977C233.211 19.7051 232.792 20.5752 231.954 21.208C231.116 21.835 229.988 22.1484 228.57 22.1484C227.586 22.1484 226.69 21.9697 225.881 21.6123C225.072 21.249 224.454 20.7539 224.027 20.127C223.605 19.5 223.394 18.7734 223.394 17.9473H226.039C226.039 19.3594 226.883 20.0654 228.57 20.0654C229.197 20.0654 229.687 19.9395 230.038 19.6875C230.39 19.4297 230.566 19.0723 230.566 18.6152Z" fill="white"/>
<path d="M253.457 11.3115H249.537V21.9727H246.9V11.3115H243.033V9.17578H253.457V11.3115Z" fill="white"/>
</g>
<defs>
<clipPath id="clip0_139_14129">
<rect width="253.457" height="31.1484" fill="white"/>
</clipPath>
</defs>
</svg>
