<svg width="26" height="26" viewBox="0 0 26 26" fill="none" xmlns="http://www.w3.org/2000/svg">
<path fill-rule="evenodd" clip-rule="evenodd" d="M13 0C13.5523 0 14 0.447715 14 1V3.18182C14 3.7341 13.5523 4.18182 13 4.18182C12.4477 4.18182 12 3.7341 12 3.18182V1C12 0.447715 12.4477 0 13 0ZM3.80562 3.80562C4.19614 3.4151 4.82931 3.4151 5.21983 3.80562L6.76893 5.35471C7.15945 5.74524 7.15945 6.3784 6.76893 6.76893C6.3784 7.15945 5.74524 7.15945 5.35471 6.76893L3.80562 5.21983C3.4151 4.82931 3.4151 4.19614 3.80562 3.80562ZM22.1944 3.80562C22.5849 4.19614 22.5849 4.82931 22.1944 5.21983L20.6453 6.76893C20.2548 7.15945 19.6216 7.15945 19.2311 6.76893C18.8406 6.3784 18.8406 5.74524 19.2311 5.35471L20.7802 3.80562C21.1707 3.4151 21.8039 3.4151 22.1944 3.80562ZM13 8.54545C10.5398 8.54545 8.54545 10.5398 8.54545 13C8.54545 15.4602 10.5398 17.4545 13 17.4545C15.4602 17.4545 17.4545 15.4602 17.4545 13C17.4545 10.5398 15.4602 8.54545 13 8.54545ZM6.54545 13C6.54545 9.43525 9.43525 6.54545 13 6.54545C16.5647 6.54545 19.4545 9.43525 19.4545 13C19.4545 16.5647 16.5647 19.4545 13 19.4545C9.43525 19.4545 6.54545 16.5647 6.54545 13ZM0 13C0 12.4477 0.447715 12 1 12H3.18182C3.7341 12 4.18182 12.4477 4.18182 13C4.18182 13.5523 3.7341 14 3.18182 14H1C0.447715 14 0 13.5523 0 13ZM21.8182 13C21.8182 12.4477 22.2659 12 22.8182 12H25C25.5523 12 26 12.4477 26 13C26 13.5523 25.5523 14 25 14H22.8182C22.2659 14 21.8182 13.5523 21.8182 13ZM6.76893 19.2311C7.15945 19.6216 7.15945 20.2548 6.76893 20.6453L5.21983 22.1944C4.82931 22.5849 4.19614 22.5849 3.80562 22.1944C3.4151 21.8039 3.4151 21.1707 3.80562 20.7802L5.35471 19.2311C5.74524 18.8406 6.3784 18.8406 6.76893 19.2311ZM19.2311 19.2311C19.6216 18.8406 20.2548 18.8406 20.6453 19.2311L22.1944 20.7802C22.5849 21.1707 22.5849 21.8039 22.1944 22.1944C21.8039 22.5849 21.1707 22.5849 20.7802 22.1944L19.2311 20.6453C18.8406 20.2548 18.8406 19.6216 19.2311 19.2311ZM13 21.8182C13.5523 21.8182 14 22.2659 14 22.8182V25C14 25.5523 13.5523 26 13 26C12.4477 26 12 25.5523 12 25V22.8182C12 22.2659 12.4477 21.8182 13 21.8182Z" fill="white"/>
</svg>
