<svg width="120" height="120" viewBox="0 0 120 120" fill="none" xmlns="http://www.w3.org/2000/svg">
<path d="M30 20H70C75.3043 20 80.3914 22.1071 84.1421 25.8579C87.8929 29.6086 90 34.6957 90 40C90 45.3043 87.8929 50.3914 84.1421 54.1421C80.3914 57.8929 75.3043 60 70 60H30V20Z" stroke="#5CB08D" stroke-width="10" stroke-linecap="round" stroke-linejoin="round"/>
<path d="M30 60H75C80.3043 60 85.3914 62.1071 89.1421 65.8579C92.8929 69.6086 95 74.6957 95 80C95 85.3043 92.8929 90.3914 89.1421 94.1421C85.3914 97.8929 80.3043 100 75 100H30V60Z" stroke="#5CB08D" stroke-width="10" stroke-linecap="round" stroke-linejoin="round"/>
</svg>
